PathFileType	4	(X/Y/Z)	markers.trc
DataRate	CameraRate	NumFrames	NumMarkers	Units	OrigDataRate	OrigDataStartFrame	OrigNumFrames
59.94	59.94	26	12	m	59.94	127	507
Frame#	Time	LEFT_SHOULDER			RIGHT_SHOULDER			LEFT_HIP			RIGHT_HIP			LEFT_KNEE			RIGHT_KNEE			LEFT_ANKLE			RIGHT_ANKLE			LEFT_HEEL			RIGHT_HEEL			LEFT_FOOT_INDEX			RIGHT_FOOT_INDEX		
		X1	Y1	Z1	X2	Y2	Z2	X3	Y3	Z3	X4	Y4	Z4	X5	Y5	Z5	X6	Y6	Z6	X7	Y7	Z7	X8	Y8	Z8	X9	Y9	Z9	X10	Y10	Z10	X11	Y11	Z11	X12	Y12	Z12

127	2.102100	5.724441	2.011856	0.000000	6.011489	1.981287	0.000000	5.848735	2.633201	0.000000	6.062305	2.609555	0.000000	5.726488	3.011854	0.000000	6.216907	3.038789	0.000000	5.690713	3.429410	0.000000	6.433423	3.468660	0.000000	5.715848	3.520985	0.000000	6.495941	3.541073	0.000000	5.499924	3.465646	0.000000	6.291966	3.606241	0.000000
128	2.118783	5.706133	2.011972	0.000000	5.990686	1.976656	0.000000	5.833491	2.631348	0.000000	6.045942	2.605236	0.000000	5.720511	3.010374	0.000000	6.201669	3.033872	0.000000	5.690191	3.430567	0.000000	6.425766	3.461096	0.000000	5.716306	3.522322	0.000000	6.489346	3.529526	0.000000	5.500018	3.468518	0.000000	6.292278	3.606129	0.000000
129	2.135467	5.688593	2.012103	0.000000	5.971045	1.971518	0.000000	5.818686	2.629376	0.000000	6.030137	2.601302	0.000000	5.714656	3.009419	0.000000	6.185546	3.029293	0.000000	5.689567	3.431504	0.000000	6.417167	3.453226	0.000000	5.716711	3.523680	0.000000	6.481646	3.517294	0.000000	5.500339	3.471091	0.000000	6.292645	3.606033	0.000000
130	2.152150	5.671791	2.012283	0.000000	5.952722	1.966150	0.000000	5.804207	2.627386	0.000000	6.014845	2.597865	0.000000	5.708723	3.008908	0.000000	6.168515	3.025191	0.000000	5.688837	3.432147	0.000000	6.407630	3.445252	0.000000	5.717100	3.524814	0.000000	6.472796	3.504693	0.000000	5.501020	3.473433	0.000000	6.293026	3.605943	0.000000
131	2.168833	5.655652	2.012505	0.000000	5.935759	1.960805	0.000000	5.789833	2.625440	0.000000	6.000007	2.594943	0.000000	5.702754	3.008731	0.000000	6.150592	3.021658	0.000000	5.688057	3.432490	0.000000	6.397170	3.437354	0.000000	5.717526	3.525561	0.000000	6.462778	3.492049	0.000000	5.502117	3.475612	0.000000	6.293341	3.605846	0.000000
132	2.185517	5.640111	2.012735	0.000000	5.920065	1.955684	0.000000	5.775311	2.623545	0.000000	5.985477	2.592485	0.000000	5.696994	3.008773	0.000000	6.131879	3.018722	0.000000	5.687303	3.432576	0.000000	6.385814	3.429667	0.000000	5.718030	3.525865	0.000000	6.451613	3.479683	0.000000	5.503594	3.477643	0.000000	6.293446	3.605726	0.000000
133	2.202200	5.625164	2.012903	0.000000	5.905478	1.950922	0.000000	5.760430	2.621658	0.000000	5.970994	2.590386	0.000000	5.691738	3.008935	0.000000	6.112553	3.016352	0.000000	5.686636	3.432478	0.000000	6.373582	3.422269	0.000000	5.718630	3.525766	0.000000	6.439375	3.467850	0.000000	5.505348	3.479488	0.000000	6.293111	3.605565	0.000000
134	2.218883	5.610865	2.012911	0.000000	5.891885	1.946606	0.000000	5.745179	2.619696	0.000000	5.956354	2.588516	0.000000	5.687196	3.009142	0.000000	6.092767	3.014479	0.000000	5.686082	3.432267	0.000000	6.360460	3.415154	0.000000	5.719310	3.525363	0.000000	6.426156	3.456634	0.000000	5.507260	3.481119	0.000000	6.292016	3.605343	0.000000
135	2.235567	5.597233	2.012656	0.000000	5.879295	1.942803	0.000000	5.729838	2.617575	0.000000	5.941630	2.586746	0.000000	5.683438	3.009347	0.000000	6.072621	3.013008	0.000000	5.685630	3.432007	0.000000	6.346399	3.408227	0.000000	5.720004	3.524786	0.000000	6.412009	3.445932	0.000000	5.509228	3.482558	0.000000	6.289734	3.605036	0.000000
136	2.252250	5.584171	2.012072	0.000000	5.867746	1.939572	0.000000	5.714884	2.615235	0.000000	5.927168	2.584964	0.000000	5.680372	3.009516	0.000000	6.052246	3.011838	0.000000	5.685243	3.431742	0.000000	6.331367	3.401392	0.000000	5.720587	3.524158	0.000000	6.396923	3.435620	0.000000	5.511160	3.483847	0.000000	6.285702	3.604620	0.000000
137	2.268933	5.571519	2.011162	0.000000	5.857152	1.936958	0.000000	5.700769	2.612659	0.000000	5.913397	2.583089	0.000000	5.677759	3.009621	0.000000	6.031784	3.010873	0.000000	5.684865	3.431478	0.000000	6.315381	3.394672	0.000000	5.720919	3.523546	0.000000	6.380813	3.425767	0.000000	5.512951	3.485005	0.000000	6.279213	3.604068	0.000000
138	2.285617	5.559154	2.010006	0.000000	5.847259	1.934953	0.000000	5.687769	2.609866	0.000000	5.900593	2.581075	0.000000	5.675306	3.009631	0.000000	6.011271	3.010005	0.000000	5.684435	3.431192	0.000000	6.298488	3.388264	0.000000	5.720913	3.522953	0.000000	6.363562	3.416657	0.000000	5.514484	3.486011	0.000000	6.269494	3.603358	0.000000
139	2.302300	5.547056	2.008724	0.000000	5.837740	1.933480	0.000000	5.675972	2.606928	0.000000	5.888770	2.578921	0.000000	5.672772	3.009517	0.000000	5.990650	3.009123	0.000000	5.683921	3.430836	0.000000	6.280699	3.382469	0.000000	5.720579	3.522332	0.000000	6.345090	3.408645	0.000000	5.515658	3.486825	0.000000	6.255890	3.602485	0.000000
140	2.318983	5.535348	2.007445	0.000000	5.828334	1.932400	0.000000	5.665301	2.603959	0.000000	5.877730	2.576678	0.000000	5.670031	3.009249	0.000000	5.969928	3.008149	0.000000	5.683335	3.430353	0.000000	6.261942	3.377577	0.000000	5.720027	3.521623	0.000000	6.325384	3.402034	0.000000	5.516434	3.487419	0.000000	6.238030	3.601468	0.000000
141	2.335667	5.524273	2.006263	0.000000	5.818890	1.931545	0.000000	5.655557	2.601070	0.000000	5.867199	2.574431	0.000000	5.667072	3.008812	0.000000	5.949268	3.007053	0.000000	5.682742	3.429702	0.000000	6.242058	3.373790	0.000000	5.719415	3.520776	0.000000	6.304481	3.397034	0.000000	5.516836	3.487799	0.000000	6.215919	3.600340	0.000000
142	2.352350	5.514119	2.005219	0.000000	5.809333	1.930755	0.000000	5.646556	2.598334	0.000000	5.856978	2.572246	0.000000	5.663980	3.008219	0.000000	5.928936	3.005837	0.000000	5.682215	3.428875	0.000000	6.220871	3.371164	0.000000	5.718887	3.519771	0.000000	6.282393	3.393711	0.000000	5.516922	3.487997	0.000000	6.189961	3.599123	0.000000
143	2.369033	5.505114	2.004303	0.000000	5.799637	1.929915	0.000000	5.638224	2.595820	0.000000	5.847032	2.570164	0.000000	5.660923	3.007514	0.000000	5.909151	3.004515	0.000000	5.681815	3.427923	0.000000	6.198263	3.369595	0.000000	5.718533	3.518645	0.000000	6.259016	3.391939	0.000000	5.516750	3.488054	0.000000	6.160870	3.597797	0.000000
144	2.385717	5.497337	2.003472	0.000000	5.789834	1.928976	0.000000	5.630570	2.593638	0.000000	5.837459	2.568258	0.000000	5.658098	3.006758	0.000000	5.889996	3.003121	0.000000	5.681571	3.426953	0.000000	6.174200	3.368888	0.000000	5.718387	3.517483	0.000000	6.234147	3.391446	0.000000	5.516368	3.488009	0.000000	6.129510	3.596314	0.000000
145	2.402400	5.490698	2.002682	0.000000	5.779996	1.927964	0.000000	5.623614	2.591923	0.000000	5.828394	2.566649	0.000000	5.655661	3.006010	0.000000	5.871411	3.001728	0.000000	5.681485	3.426102	0.000000	6.148690	3.368854	0.000000	5.718447	3.516420	0.000000	6.207645	3.391926	0.000000	5.515810	3.487887	0.000000	6.096766	3.594636	0.000000
146	2.419083	5.484992	2.001908	0.000000	5.770205	1.926933	0.000000	5.617350	2.590756	0.000000	5.819955	2.565451	0.000000	5.653673	3.005318	0.000000	5.853233	3.000432	0.000000	5.681537	3.425506	0.000000	6.121708	3.369390	0.000000	5.718689	3.515628	0.000000	6.179547	3.393110	0.000000	5.515085	3.487700	0.000000	6.063501	3.592776	0.000000
147	2.435767	5.479973	2.001172	0.000000	5.760537	1.925938	0.000000	5.611749	2.590112	0.000000	5.812211	2.564694	0.000000	5.652121	3.004728	0.000000	5.835341	2.999321	0.000000	5.681710	3.425280	0.000000	6.093166	3.370555	0.000000	5.719086	3.515287	0.000000	6.150023	3.394874	0.000000	5.514191	3.487452	0.000000	6.030472	3.590807	0.000000
148	2.452450	5.475447	2.000546	0.000000	5.751059	1.925026	0.000000	5.606783	2.589884	0.000000	5.805130	2.564323	0.000000	5.650961	3.004292	0.000000	5.817832	2.998455	0.000000	5.682005	3.425509	0.000000	6.062990	3.372643	0.000000	5.719629	3.515527	0.000000	6.119281	3.397409	0.000000	5.513149	3.487147	0.000000	5.998157	3.588850	0.000000
149	2.469133	5.471359	2.000123	0.000000	5.741820	1.924239	0.000000	5.602399	2.589923	0.000000	5.798541	2.564240	0.000000	5.650105	3.004041	0.000000	5.801015	2.997856	0.000000	5.682448	3.426236	0.000000	6.031278	3.376204	0.000000	5.720340	3.516387	0.000000	6.087560	3.401336	0.000000	5.512033	3.486806	0.000000	5.966568	3.587066	0.000000
150	2.485817	5.467786	1.999965	0.000000	5.732861	1.923609	0.000000	5.598458	2.590077	0.000000	5.792167	2.564328	0.000000	5.649376	3.003957	0.000000	5.785218	2.997494	0.000000	5.683084	3.427447	0.000000	5.998455	3.381937	0.000000	5.721265	3.517794	0.000000	6.055175	3.407646	0.000000	5.510954	3.486468	0.000000	5.935171	3.585662	0.000000
151	2.502500	5.464812	2.000086	0.000000	5.724253	1.923157	0.000000	5.594763	2.590202	0.000000	5.785736	2.564479	0.000000	5.648518	3.003964	0.000000	5.770655	2.997302	0.000000	5.683949	3.429052	0.000000	5.965232	3.390457	0.000000	5.722433	3.519543	0.000000	6.022421	3.417460	0.000000	5.510011	3.486195	0.000000	5.903067	3.584908	0.000000
152	2.519183	5.462419	2.000445	0.000000	5.716074	1.922881	0.000000	5.591131	2.590175	0.000000	5.779088	2.564601	0.000000	5.647239	3.003945	0.000000	5.757409	2.997206	0.000000	5.685037	3.430878	0.000000	5.932358	3.401944	0.000000	5.723813	3.521312	0.000000	5.989436	3.431644	0.000000	5.509285	3.486071	0.000000	5.869383	3.585054	0.000000
